<?xml version="1.0" encoding="UTF-8"?>
<svg width="418px" height="375px" viewBox="0 0 418 375" version="1.1" xmlns="http://www.w3.org/2000/svg" xmlns:xlink="http://www.w3.org/1999/xlink">
    <!-- Generator: Sketch 49.2 (51160) - http://www.bohemiancoding.com/sketch -->
    <title>hero-devtools</title>
    <desc>Created with Sketch.</desc>
    <defs>
        <rect id="path-1" x="0" y="0" width="440" height="375"></rect>
    </defs>
    <g id="FG-devtools" stroke="none" stroke-width="1" fill="none" fill-rule="evenodd">
        <g transform="translate(-785.000000, -108.000000)" id="hero-content---top">
            <g transform="translate(0.000000, -109.000000)">
                <g id="fg-devtools-bknd">
                    <g id="Rectangle-4">
                        <g id="Group-25" transform="translate(772.000000, 217.000000)">
                            <g id="Page-1" transform="translate(0.666667, 0.000000)">
                                <g id="hero-devtools" transform="translate(0.000000, 0.000000)">
                                    <mask id="mask-2" fill="white">
                                        <use xlink:href="#path-1"></use>
                                    </mask>
                                    <g id="Mask" transform="translate(220.000000, 187.500000) scale(-1, 1) translate(-220.000000, -187.500000) "></g>
                                    <path d="M301.202807,169.293719 C367.447464,169.293719 421.054661,223.205689 421.054661,289.814048 C421.054661,356.433964 367.447464,410.340155 301.202807,410.340155 C234.958151,410.340155 181.350954,356.433964 181.350954,289.814048 C181.350954,223.205689 234.958151,169.293719 301.202807,169.293719 Z M178.00915,253.039288 C122.475499,269.624351 62.4820904,246.702623 32.001548,196.816018 C0.893800355,145.908664 8.59459138,80.1145635 50.6041305,37.8468385 C76.8557823,11.4367342 112.256434,-1.5024832 147.478932,0.138757416 C168.610133,1.12119018 189.672371,7.35674873 208.659993,19.0765937 C258.305925,49.7230697 281.131944,110.065962 264.629167,165.933827 C276.220126,162.474296 288.493288,160.616667 301.194444,160.616667 C372.099847,160.616667 429.666667,218.510345 429.666667,289.805444 C429.666667,361.106322 372.099847,419 301.194444,419 C230.289042,419 172.722222,361.106322 172.722222,289.805444 C172.722222,277.034837 174.569261,264.694216 178.00915,253.039288 Z M181.182206,243.639769 C194.217177,209.438182 221.304467,182.206615 255.322558,169.109097 C255.106313,168.315988 255.112055,167.452846 255.387703,166.614879 C272.616786,113.580847 251.445358,55.6462086 204.160202,26.4621765 C156.875047,-2.72185563 95.9181135,4.51925174 56.695801,43.9783748 C17.4734885,83.4374978 10.2956616,144.747081 39.3460337,192.27949 C68.390659,239.817678 126.020161,261.078679 178.747592,243.724293 C178.764832,243.724293 178.776326,243.718514 178.78782,243.712735 C179.594008,243.452079 180.419768,243.442168 181.182206,243.639769 Z" id="Combined-Shape" stroke="#E6EDF1" fill="#E6EDF1" mask="url(#mask-2)"></path>
                                    <path d="M129.622507,85.4115385 L191.952991,85.4115385 L191.952991,148.091074 L160.27208,179.955128 L97.9358974,179.955128 L97.9358974,117.275593 L129.622507,85.4115385 Z M126.084046,76.8166667 L89.3888889,113.711586 L89.3888889,188.55 L93.6623932,188.55 L163.810541,188.55 L200.5,151.65508 L200.5,76.8166667 L126.084046,76.8166667 Z" id="Fill-5" stroke="#E6EDF1" fill="#E6EDF1" mask="url(#mask-2)"></path>
                                    <polygon id="Fill-7" stroke="#E6EDF1" fill="#E6EDF1" mask="url(#mask-2)" points="194.535573 83.8 162.04884 117.065572 96.3333333 117.065572 96.3333333 125.7 165.5398 125.7 200.5 89.9074186"></polygon>
                                    <polygon id="Fill-9" stroke="#E6EDF1" fill="#E6EDF1" mask="url(#mask-2)" points="158.833333 188.55 165.777778 188.55 165.777778 118.716667 158.833333 118.716667"></polygon>
                                    <path d="M264.244912,244.416667 L269.944444,250.639882 L232.911016,289.811241 L269.944444,328.976785 L264.244912,335.2 L221.333333,289.811241 L264.244912,244.416667 Z M338.143977,244.416667 L381.055556,289.811241 L338.143977,335.2 L332.444444,328.976785 L369.488698,289.811241 L332.444444,250.639882 L338.143977,244.416667 Z M317.572599,216.483333 L325.5,218.848291 L284.832817,363.133333 L276.888889,360.768376 L317.572599,216.483333 Z" id="Combined-Shape" stroke="#E6EDF1" fill="#E6EDF1" mask="url(#mask-2)"></path>
                                </g>
                            </g>
                        </g>
                    </g>
                </g>
            </g>
        </g>
    </g>
</svg>